<?xml version="1.0" standalone="no"?><!DOCTYPE svg PUBLIC "-//W3C//DTD SVG 1.1//EN" "http://www.w3.org/Graphics/SVG/1.1/DTD/svg11.dtd"><svg t="1551180514010" class="icon" style="" viewBox="0 0 1055 1024" version="1.1" xmlns="http://www.w3.org/2000/svg" p-id="1361" xmlns:xlink="http://www.w3.org/1999/xlink" width="3090.8203125" height="3000"><defs><style type="text/css"></style></defs><path d="M910.134679 829.320891c0.991279 1.283788-0.131254 0.132504 1.152534 1.152534 38.941157 39.522424 77.888564 79.039848 116.829721 118.528522 8.960266 9.030268 31.680941 25.442006 24.511978 49.283964-1.02003 3.422602-4.863895 11.10533-7.006458 14.079168-9.917795 13.921664-36.768592 15.171701-51.392777 4.70639-44.76758-45.376348-89.567661-90.753946-134.335241-136.131545-1.313789 1.02503-0.131254-0.126254-1.186285 1.186285-3.901366 2.461323-6.176434 6.206434-9.341528 9.375279-7.39272 7.422721-14.785439 14.879192-22.178159 22.305663-23.360694 23.071936-46.753889 46.143871-70.114583 69.247057-10.494062 10.946575-21.020625 21.8894-31.519687 32.867227-16.895502 12.031607-41.504983 3.901366-50.401498-9.41028-2.495074-3.745111-2.01131-6.782702-3.516354-11.742849-7.74398-25.889519 12.349117-38.04863 23.5507-49.278964 26.847048-27.393314 53.726596-54.754127 80.607395-82.147441 7.778981-7.806482 15.551712-15.650465 23.330693-23.458197 3.422602-3.422602 7.710229-5.312658 9.375279-10.561564-4.350129-2.68383-7.006458-7.036459-10.527813-10.555314l-22.178159-22.306913c-23.775706-23.873209-47.521412-47.711418-71.267117-71.584627-13.662906-13.730408-32.798475-25.664513-38.556146-46.943895-4.418881-16.290484 10.556564-30.402153 18.686805-34.723532 3.676359-1.952558 8.609006-1.117533 11.680347-3.520105 29.790885-0.063752 38.941157 15.172951 53.726596 30.022142 26.079525 25.820767 52.194051 51.645284 78.273576 77.472302 6.690199 6.686449 24.766986 29.150866 32.705972 31.682191 44.000057-44.611325 88.030116-89.1889 132.030173-133.797725 16.675495-11.905354 42.115001-5.026399 51.392777 8.227744 7.426471 10.590315 7.456472 31.680941 0 42.237505C999.702341 740.138241 954.901009 784.715815 910.134679 829.320891L910.134679 829.320891zM288.011195 672.967495 511.982849 672.967495c17.695526 0 32.003451 14.337926 32.003451 31.999701 0 17.700526-14.306675 32.002201-32.003451 32.002201l-223.971655 0c-17.695526 0-31.997201-14.300425-31.997201-32.002201C256.013994 687.305421 270.315669 672.967495 288.011195 672.967495L288.011195 672.967495zM703.986054 288.963586l-415.974859 0c-17.695526 0-31.997201-14.302925-31.997201-31.998451 0-17.666775 14.301675-32.003451 31.997201-32.003451l415.974859 0c17.695526 0 32.032202 14.336676 32.032202 32.003451C736.018256 274.660661 721.68158 288.963586 703.986054 288.963586L703.986054 288.963586zM703.986054 512.968991l-415.974859 0c-17.695526 0-31.997201-14.306675-31.997201-32.004701 0-17.665525 14.301675-31.997201 31.997201-31.997201l415.974859 0c17.695526 0 32.032202 14.331676 32.032202 31.997201C736.018256 498.662316 721.68158 512.968991 703.986054 512.968991L703.986054 512.968991zM959.989911 608.968094c-17.661775 0-31.998451-14.302925-31.998451-31.999701 0-0.645019 0.35126-1.152534 0.381261-1.791303l-0.66877 0 0-443.690683c0-21.245631 0.66877-42.975027-8.002738-55.167889-9.629036-13.47165-32.608469-11.709098-55.905411-11.709098l-668.457361 0-66.174466 0-3.872615 0c-23.295692 0-45.283845-1.762552-54.912882 11.709098-8.672758 12.192862-7.007708 33.922258-7.007708 55.167889l0 127.523789 0 464.676306L63.37077 855.112907c0 23.394445-1.728801 55.490399 11.680347 65.151936 11.196583 8.033989 25.151997 8.033989 44.41507 8.033989l454.916016 0 0 0.991279c0.576267 0 1.060031-0.317509 1.636299-0.317509 17.661775 0 31.998451 14.336676 31.998451 31.998451 0 17.700526-14.336676 32.002201-31.998451 32.002201-4.800143 0-9.219024-1.185035-13.315396-3.071341l-443.425675 0c-11.875353 0-26.114526 0.738772-36.226076-2.176315-32.193457-9.249025-60.734305-29.214618-73.600937-57.501708-10.977826-24.160718-9.346528-57.092946-9.346528-92.707755L0.103891 676.743857l0-423.621337 0-120.511081c0-24.098216-1.372541-48.771449 5.860174-65.700702 9.950296-23.423196 29.853387-47.101399 52.545311-57.501708 6.171433-2.851335 13.599154-5.0589 19.86809-7.041459 3.970118-1.277538 8.834012-0.161255 11.680347-2.36757l39.332419 0 60.191788 0 709.449829 0c2.876335 2.206316 7.710229 1.088782 11.680347 2.36757 6.270186 1.982559 13.696657 4.191375 19.86934 7.041459 22.690674 10.400309 42.593766 34.078513 52.580312 57.501708 7.197714 16.929253 6.816453 41.602486 6.816453 65.700702L989.978302 566.984346c1.083782 3.167594 2.01631 6.430191 2.01631 9.984047C991.992111 594.665169 977.685436 608.968094 959.989911 608.968094L959.989911 608.968094zM959.989911 608.968094" p-id="1362"></path></svg>
