<?xml version="1.0" standalone="no"?><!DOCTYPE svg PUBLIC "-//W3C//DTD SVG 1.1//EN" "http://www.w3.org/Graphics/SVG/1.1/DTD/svg11.dtd"><svg t="1551010422090" class="icon" style="" viewBox="0 0 1024 1024" version="1.1" xmlns="http://www.w3.org/2000/svg" p-id="18163" xmlns:xlink="http://www.w3.org/1999/xlink" width="3000" height="3000"><defs><style type="text/css"></style></defs><path d="M554.780444 42.552889V682.666667c0 23.438222-19.114667 42.552889-42.552888 42.552889s-42.780444-19.114667-42.780445-42.552889V42.552889c0-23.438222 19.114667-42.552889 42.780445-42.552889 23.210667 0 42.552889 19.114667 42.552888 42.552889" p-id="18164"></path><path d="M797.582222 457.386667L542.037333 712.931556c-16.611556 16.611556-43.690667 16.611556-60.302222 0s-16.611556-43.690667 0-60.302223L737.28 396.856889c16.611556-16.611556 43.690667-16.611556 60.302222 0 16.611556 16.839111 16.611556 43.690667 0 60.529778" p-id="18165"></path><path d="M481.735111 712.931556L226.190222 457.386667c-16.611556-16.611556-16.611556-43.690667 0-60.302223s43.690667-16.611556 60.302222 0l255.544889 255.544889c16.611556 16.611556 16.611556 43.690667 0 60.302223-16.611556 16.611556-43.463111 16.611556-60.302222 0" p-id="18166"></path><path d="M68.266667 1024c-37.774222 0-68.266667-30.492444-68.266667-68.266667V641.024c0-23.893333 19.569778-44.145778 43.463111-43.690667 23.210667 0.455111 41.870222 19.342222 41.870222 42.552889v298.780445h853.333334V641.024c0-23.893333 19.569778-44.145778 43.463111-43.690667 23.210667 0.455111 41.870222 19.342222 41.870222 42.552889V955.733333c0 37.774222-30.492444 68.266667-68.266667 68.266667h-59.619555" p-id="18167"></path></svg>
