<?xml version="1.0" standalone="no"?><!DOCTYPE svg PUBLIC "-//W3C//DTD SVG 1.1//EN" "http://www.w3.org/Graphics/SVG/1.1/DTD/svg11.dtd"><svg t="1551363430282" class="icon" style="" viewBox="0 0 1024 1024" version="1.1" xmlns="http://www.w3.org/2000/svg" p-id="10166" xmlns:xlink="http://www.w3.org/1999/xlink" width="3000" height="3000"><defs><style type="text/css"></style></defs><path d="M512 1013.028571C234.057143 1013.028571 10.971429 789.942857 10.971429 512S234.057143 10.971429 512 10.971429c98.742857 0 193.828571 29.257143 274.285714 84.114285 18.285714 10.971429 21.942857 32.914286 10.971429 51.2-10.971429 18.285714-32.914286 21.942857-51.2 10.971429-69.485714-47.542857-153.6-69.485714-237.714286-69.485714C274.285714 84.114286 84.114286 274.285714 84.114286 512S277.942857 939.885714 512 939.885714c237.714286 0 427.885714-193.828571 427.885714-427.885714 0-14.628571 0-29.257143-3.657143-43.885714-3.657143-18.285714 10.971429-36.571429 32.914286-40.228572 18.285714-3.657143 36.571429 10.971429 40.228572 32.914286 0 18.285714 3.657143 32.914286 3.657142 51.2 0 277.942857-223.085714 501.028571-501.028571 501.028571z"  p-id="10167"></path><path d="M735.085714 650.971429L599.771429 512l138.971428-138.971429c10.971429-10.971429 7.314286-40.228571-7.314286-54.857142-10.971429-10.971429-40.228571-21.942857-54.857142-7.314286l-138.971429 138.971428-138.971429-138.971428c-10.971429-10.971429-40.228571-7.314286-54.857142 7.314286-14.628571 10.971429-21.942857 40.228571-10.971429 54.857142l138.971429 138.971429-138.971429 138.971429c-10.971429 10.971429-7.314286 40.228571 7.314286 54.857142 10.971429 10.971429 40.228571 21.942857 54.857143 7.314286l138.971428-138.971428 138.971429 138.971428c10.971429 10.971429 40.228571 7.314286 54.857143-7.314286 10.971429-14.628571 21.942857-43.885714 7.314285-54.857142z"  p-id="10168"></path></svg>
