<svg t="1543837032085" class="icon" style="" viewBox="0 0 1024 1024" version="1.1" xmlns="http://www.w3.org/2000/svg" p-id="3770" xmlns:xlink="http://www.w3.org/1999/xlink" width="128" height="128"><defs><style type="text/css"></style></defs><path d="M529.265778 635.306667l392.192-392.248889a42.666667 42.666667 0 0 1 60.359111 60.359111l-422.4 422.4a42.666667 42.666667 0 0 1-60.330667 0l-181.020444-181.020445a42.666667 42.666667 0 0 1 60.330666-60.359111l150.869334 150.869334z" p-id="3771">
</path><path d="M842.126222 120.632889L784.554667 183.751111A424.931556 424.931556 0 0 0 512 85.333333C276.366222 85.333333 85.333333 276.366222 85.333333 512c0 235.633778 191.032889 426.666667 426.666667 426.666667 235.633778 0 426.666667-191.032889 426.666667-426.666667 0-4.721778-0.085333-9.443556-0.227556-14.165333h85.361778c0.142222 4.721778 0.199111 9.443556 0.199111 14.165333 0 282.766222-229.233778 512-512 512S0 794.766222 0 512 229.233778 0 512 0c125.809778 0 241.009778 45.368889 330.126222 120.632889z" p-id="3772"></path><path d="M981.333333 497.777778m-42.666666 0a42.666667 42.666667 0 1 0 85.333333 0 42.666667 42.666667 0 1 0-85.333333 0Z"  p-id="3773"></path><path d="M809.898667 191.914667a42.666667 42.666667 0 1 0 0-85.333334 42.666667 42.666667 0 0 0 0 85.333334z"  p-id="3774"></path></svg>
