<svg t="1543847413084" class="icon" style="" viewBox="0 0 1024 1024" version="1.1" xmlns="http://www.w3.org/2000/svg" p-id="5223" xmlns:xlink="http://www.w3.org/1999/xlink" width="64" height="64"><defs><style type="text/css"></style></defs><path d="M1024 204.8C1024 91.7 932.3 0 819.2 0H204.8C91.7 0 0 91.7 0 204.8v614.4C0 932.3 91.7 1024 204.8 1024h614.4c113.2 0 204.8-91.7 204.8-204.8V204.8z m-250.9 297H568.3l0.5 66.6h170.5c28.1 0 51.2 23.1 51.2 51.2 0 28.2-23.1 51.2-51.2 51.2h-170l0.5 154.6c0 28.2-22.5 50.2-51.2 50.2-28.2 0-51.2-19.5-51.2-47.6l-0.4-157.3H295.4c-28.2 0-51.2-23-51.2-51.2 0-28.1 23-51.2 51.2-51.2h171l-0.5-66.6H261.1c-28.2 0-51.2-23-51.2-51.2 0-28.1 23-51.2 51.2-51.2h143.4L240.6 234.5c-20-20-20-53.3 0-73.2 20-20 52.2-20 72.2 0l204.3 204.3 203.8-203.8c20-20 52.2-20 72.2 0s20 52.7 0 72.7L629.8 399.3h143.4c28.2 0 51.2 23.1 51.2 51.2-0.1 28.2-22.6 51.3-51.3 51.3z" p-id="5224"></path></svg>
