<?xml version="1.0" standalone="no"?><!DOCTYPE svg PUBLIC "-//W3C//DTD SVG 1.1//EN" "http://www.w3.org/Graphics/SVG/1.1/DTD/svg11.dtd"><svg t="1551008968359" class="icon" style="" viewBox="0 0 1024 1024" version="1.1" xmlns="http://www.w3.org/2000/svg" p-id="12748" xmlns:xlink="http://www.w3.org/1999/xlink" width="1200" height="1200"><defs><style type="text/css"></style></defs><path d="M952.713923 169.366921c0-61.787932-50.190197-111.978129-111.978129-111.978129l-89.182582 0c-12.397579 0-22.395626 9.998047-22.395626 22.395626 0 12.397579 9.998047 22.395626 22.395626 22.395626l89.182582 0c36.992775 0 67.186878 30.194103 67.186878 67.186878l0 262.148799c15.596954 7.598516 30.594025 16.396798 44.791252 26.194884L952.713923 169.366921z" p-id="12749"></path><path d="M482.205819 978.408905 183.264206 978.408905c-36.992775 0-67.186878-30.194103-67.186878-67.186878l0-741.855106c0-36.992775 30.194103-67.186878 67.186878-67.186878l73.98555 0c12.397579 0 22.395626-9.998047 22.395626-22.395626 0-12.397579-9.998047-22.395626-22.395626-22.395626l-73.98555 0c-61.787932 0-111.978129 50.190197-111.978129 111.978129l0 742.055067c0 61.787932 50.190197 111.978129 111.978129 111.978129L527.996876 1023.400117C511.400117 1009.802773 496.003124 994.805702 482.205819 978.408905z" p-id="12750"></path><path d="M612.180434 118.976762 411.819566 118.976762c-21.595782 0-39.192345-17.596563-39.192345-39.192345 0-21.595782 17.596563-39.192345 39.192345-39.192345l200.560828 0c21.595782 0 39.192345 17.596563 39.192345 39.192345C651.372779 101.380199 633.976177 118.976762 612.180434 118.976762L612.180434 118.976762z" p-id="12751" ></path><path d="M731.95704 359.329818 292.04296 359.329818c-27.794571 0-50.190197-22.395626-50.190197-50.190197s22.395626-50.190197 50.190197-50.190197l439.914079 0c27.794571 0 50.190197 22.395626 50.190197 50.190197S759.55165 359.329818 731.95704 359.329818L731.95704 359.329818z" p-id="12752"></path><path d="M559.790666 451.911736 292.04296 451.911736c-27.794571 0-50.190197 22.395626-50.190197 50.190197s22.395626 50.190197 50.190197 50.190197l165.767624 0C484.605351 512.299941 519.398555 478.10662 559.790666 451.911736z" p-id="12753"></path><path d="M749.153681 474.507323c-151.770357 0-274.746339 122.975981-274.746339 274.746339 0 151.770357 122.975981 274.746339 274.746339 274.746339 151.770357 0 274.746339-122.975981 274.746339-274.746339C1023.90002 597.483304 900.924038 474.507323 749.153681 474.507323zM940.916227 784.246827l-191.762546 0c-19.396212 0-34.993165-15.596954-34.993165-34.993165l0-184.363991c0-19.396212 15.596954-34.993165 34.993165-34.993165s34.993165 15.596954 34.993165 34.993165l0 149.370826 156.769381 0c19.396212 0 34.993165 15.596954 34.993165 34.993165S960.312439 784.246827 940.916227 784.246827z" p-id="12754" ></path></svg>
