<svg t="1543847881639" class="icon" style="" viewBox="0 0 1024 1024" version="1.1" xmlns="http://www.w3.org/2000/svg" p-id="12147" xmlns:xlink="http://www.w3.org/1999/xlink" width="128" height="128"><defs><style type="text/css"></style></defs><path d="M1005.4 326.4c-80.8-134.7-79.5-137.2-79.5-137.2S647 267.4 595 0H433.5s-44.6 267.8-329.6 188.5C21.5 325.8 18.7 330.1 18.6 330.2c0.1 0.1 223.1 155.9 0 367.4L105.2 840s246.3-106.3 327 184h163.5S647 757.3 924 836.1c78.9-134.7 80.2-135.9 80.2-135.9s-209.2-180.3 1.2-373.8zM510.7 700.5c-104.1 0-188.5-84.4-188.5-188.5s84.4-188.5 188.5-188.5S699.2 407.9 699.2 512s-84.4 188.5-188.5 188.5z" p-id="12148"></path></svg>
