<?xml version="1.0" standalone="no"?><!DOCTYPE svg PUBLIC "-//W3C//DTD SVG 1.1//EN" "http://www.w3.org/Graphics/SVG/1.1/DTD/svg11.dtd"><svg t="1551009252450" class="icon" style="" viewBox="0 0 1024 1024" version="1.1" xmlns="http://www.w3.org/2000/svg" p-id="14535" xmlns:xlink="http://www.w3.org/1999/xlink" width="3000" height="3000"><defs><style type="text/css"></style></defs><path d="M131.41878 456.525449c-1.204099 0-2.408198-0.172014-3.78431-0.344028-10.664875-2.064169-17.545439-12.385016-15.48127-22.877877 15.653284-79.642533 54.356459-152.060474 112.1532-209.6852s130.386696-96.155888 210.201243-111.465144c10.664875-2.064169 20.813707 4.988409 22.877877 15.48127 2.064169 10.492861-4.988409 20.813707-15.48127 22.877877-72.073912 13.933143-137.783303 48.852007-189.903578 100.800268-52.29229 51.948261-87.383168 117.485637-101.488325 189.387536-1.720141 9.288762-9.976818 15.825298-19.093567 15.825298zM445.000504 913.394927c-1.032085 0-2.236183-0.172014-3.268268-0.344028C274.362506 884.152528 141.567613 752.217705 111.29313 585.192004c-1.892155-10.664875 5.160423-20.813707 15.653284-22.705863s20.813707 5.160423 22.705862 15.653284c27.350244 151.028389 147.588107 270.062154 298.78851 296.380313 10.664875 1.720141 17.717453 12.040988 15.825298 22.533848-1.548127 9.63279-9.804804 16.341341-19.26558 16.341341zM577.107341 913.738955c-9.288762 0-17.717453-6.70855-19.265581-16.34134-1.720141-10.664875 5.332437-20.641693 15.997313-22.533849 75.686209-12.729044 144.319839-48.335965 198.848312-102.864438s89.791366-123.506131 102.520409-199.020326c1.720141-10.664875 11.868974-17.717453 22.533849-16.169326 10.664875 1.720141 17.717453 11.868974 16.169326 22.533848-13.933143 83.598858-53.15236 159.801109-113.357299 220.178062s-136.235176 99.768184-219.834033 113.873341c-1.548127 0.172014-2.580212 0.344028-3.612296 0.344028zM893.44129 461.857887c-9.288762 0-17.545439-6.536536-19.093566-16.169327-13.245087-73.622039-48.335965-140.535528-101.316311-193.859902C719.879053 198.676298 653.137578 163.241391 579.687552 149.652276c-10.664875-1.892155-17.717453-12.040988-15.653284-22.705862 1.892155-10.664875 12.040988-17.717453 22.705863-15.653284 81.362674 15.137242 155.328742 54.356459 213.813539 113.185284 58.656812 59.00084 97.532001 133.138922 112.1532 214.329582 1.892155 10.664875-5.160423 20.813707-15.653284 22.705863-1.204099 0.172014-2.408198 0.344028-3.612296 0.344028z" p-id="14536" ></path><path d="M512.086007 511.913993m-246.668234 0a246.668235 246.668235 0 1 0 493.336469 0 246.668235 246.668235 0 1 0-493.336469 0Z" p-id="14537"></path></svg>
