<svg t="1544066003448" class="icon" style="" viewBox="0 0 1024 1024" version="1.1" xmlns="http://www.w3.org/2000/svg" p-id="5241" xmlns:xlink="http://www.w3.org/1999/xlink" width="128" height="128"><defs><style type="text/css"></style></defs><path d="M990.72 929.28H33.28c-17.92 0-33.28 15.36-33.28 33.28 0 20.48 15.36 35.84 33.28 35.84h954.88c17.92 0 33.28-15.36 33.28-33.28 2.56-20.48-12.8-35.84-30.72-35.84zM222.72 614.4c66.56 0 120.32-53.76 120.32-120.32 0-25.6-7.68-48.64-20.48-66.56l184.32-227.84c2.56 0 5.12 2.56 7.68 2.56L604.16 563.2c-35.84 20.48-58.88 58.88-58.88 102.4 0 66.56 53.76 120.32 120.32 120.32s120.32-53.76 120.32-120.32c0-35.84-15.36-66.56-40.96-89.6l92.16-199.68c46.08 0 84.48-38.4 84.48-84.48S883.2 204.8 837.12 204.8c-46.08 0-84.48 38.4-84.48 84.48 0 23.04 7.68 40.96 23.04 56.32l-92.16 199.68h-10.24l-92.16-358.4c20.48-15.36 33.28-40.96 33.28-69.12 0-46.08-38.4-84.48-84.48-84.48-46.08 0-84.48 38.4-84.48 84.48 0 12.8 2.56 28.16 10.24 38.4L268.8 384c-15.36-5.12-30.72-10.24-46.08-10.24-66.56 0-120.32 53.76-120.32 120.32S156.16 614.4 222.72 614.4z"  p-id="5242"></path></svg>
