<svg t="1543847551904" class="icon" style="" viewBox="0 0 1024 1024" version="1.1" xmlns="http://www.w3.org/2000/svg" p-id="6254" xmlns:xlink="http://www.w3.org/1999/xlink" width="64" height="64"><defs><style type="text/css"></style></defs><path d="M764.314 348.98c-28.263-38.33-53.385-30.73-67.885-15.984l-259.277 257.22-121.16-124.665c-14.572-14.818-36.863-36.236-71.251-0.728-38.53 40.004 2.785 74.365 17.194 89.184l148.03 152.016c0 0.164 0.245 0.164 0.336 0.246 0 0.082 0.073 0.236 0.155 0.236 2.357 2.367 5.215 3.832 8.055 5.37 1.557 0.82 2.703 2.04 4.242 2.695a38.299 38.299 0 0 0 14.163 2.676c4.806 0 9.53-0.883 14.09-2.676 1.465-0.573 2.521-1.711 3.978-2.53 2.776-1.548 5.707-2.922 8.146-5.289 0.073-0.082 0.073-0.246 0.246-0.246 0.082-0.154 0.164-0.154 0.328-0.236l300.855-304.206c14.573-14.654 14.418-38.43-0.245-53.084z m123.28 628.098H136.042c-62.205 0-112.768-50.563-112.768-112.776V112.758C23.274 50.563 73.837 0 136.042 0h751.543c62.123 0 112.767 50.563 112.767 112.758v751.544c0.01 62.213-50.635 112.776-112.758 112.776z" p-id="6255"></path></svg>
