<?xml version="1.0" standalone="no"?><!DOCTYPE svg PUBLIC "-//W3C//DTD SVG 1.1//EN" "http://www.w3.org/Graphics/SVG/1.1/DTD/svg11.dtd"><svg t="1551180508797" class="icon" style="" viewBox="0 0 1062 1024" version="1.1" xmlns="http://www.w3.org/2000/svg" p-id="1231" xmlns:xlink="http://www.w3.org/1999/xlink" width="3111.328125" height="3000"><defs><style type="text/css"></style></defs><path d="M707.072 970.24c-89.6-81.92-118.784-127.488-93.184-147.968 23.04-18.944 36.352-12.8 87.552 38.4 26.112 26.112 54.272 51.712 62.464 57.344l14.848 9.728 14.848-17.408c8.192-9.728 48.64-62.464 89.6-117.248 103.936-138.24 121.856-158.208 142.848-158.208 13.312 0 18.432 3.072 24.576 14.848 10.24 19.456 9.728 37.888-0.512 46.592-4.608 3.584-24.064 29.696-43.52 57.856S950.784 829.952 925.184 859.136c-25.6 29.696-59.904 73.728-77.312 98.304-32.768 47.616-44.544 58.368-68.608 62.464-13.312 2.048-21.504-3.584-72.192-49.664z m-640 10.752c-25.6-10.24-50.176-42.496-57.856-76.288-1.536-7.168-3.584-195.584-4.096-419.328-1.536-465.408-5.632-424.96 47.104-460.8l27.648-18.944 411.136-1.536c429.056-1.536 430.592-1.536 463.36 19.456 6.144 4.096 15.872 18.944 22.528 33.28 11.264 26.112 11.264 29.184 10.752 258.56-0.512 158.72-2.56 234.496-6.144 239.104-8.192 10.24-31.744 8.192-47.104-4.096l-13.312-10.752V323.072c0-125.44-2.048-221.696-5.12-229.376-9.216-24.064-21.504-24.576-408.576-24.064-198.144 0.512-373.76 2.048-389.632 3.584-28.16 3.072-29.696 4.096-35.84 21.504-5.12 14.336-6.656 100.864-6.656 394.24 0 206.336 1.536 384 4.096 394.24 6.656 31.744 8.704 31.744 264.192 32.256 168.96 0.512 230.4 2.048 238.592 6.656 15.36 8.192 20.48 29.696 10.752 46.592l-7.168 13.312-252.928 1.024c-159.744 3.072-258.048 1.536-265.728-2.048z m227.328-254.464c-10.24-19.968-9.728-37.888 1.536-48.128 8.192-7.68 31.232-8.704 219.648-8.704h210.432l8.192 15.872c4.608 8.704 7.168 22.016 6.656 29.184-2.56 23.552-22.016 25.6-240.128 26.112l-197.632 0.512-8.704-14.848z m166.4-198.144c-101.888-1.024-157.696-3.584-162.304-7.168-11.776-9.728-14.336-39.424-4.096-50.688 8.704-9.728 16.896-10.24 220.16-10.24h210.944l8.192 11.264c4.608 6.144 8.192 18.432 8.192 27.648-0.512 30.208-22.016 32.256-281.088 29.184z m-166.4-225.792c-10.24-19.968-9.728-32.768 1.536-43.008 8.192-7.68 31.232-8.704 221.696-8.704h211.968l6.144 12.8c3.072 7.168 6.144 18.944 6.144 25.6 0 25.6-14.848 27.648-237.056 27.648H302.08c0 0.512-7.68-14.336-7.68-14.336z" p-id="1232"></path></svg>
